<?xml version="1.0" encoding="UTF-8"?> <svg xmlns="http://www.w3.org/2000/svg" width="518" height="90.346" viewBox="0 0 518 90.3458"><defs><style>.a{fill:#d4af37}</style></defs><path class="a" d="M159.342 61.068h-.119l-30.884-37.67h-3.361v41.381h2.664V27.106h.116l30.889 37.673h3.361V23.398h-2.666v37.67zM94.18 23.398L75.172 64.779h3.01l6.086-13.332h22.83l6.087 13.332h3.014l-19.01-41.381zM85.308 49.13L95.68 26.414l10.373 22.716zM506.932 12.042h-3.359l-8.346 8.225h2.604l9.101-8.225zM22.602 43.105l-8.518-1.682c-7.885-1.57-9.795-3.77-9.795-8.175 0-4.75 3.301-8.459 13.389-8.459 10.837 0 13.62 5.564 13.903 10.319h2.669c-.29-8.81-6.896-12.636-17.326-12.636-10.2 0-15.65 4.522-15.65 10.72s3.424 8.983 12.52 10.838l7.709 1.625c8.632 1.853 10.894 3.824 10.894 8.515 0 4.869-3.651 9.215-13.848 9.215C7.42 63.385 2.72 58.806 2.663 51.1H0c0 8.81 5.16 14.607 18.777 14.607 12.923 0 16.631-6.087 16.631-11.71 0-6.606-4.519-9.213-12.806-10.892zM76.979 23.398H40.931v2.317h16.691v39.064h2.666V25.715h16.691v-2.317zM175.277 23.398h2.664v41.381h-2.664zM386.551 22.472c-16.805 0-21.964 13.561-21.964 21.615 0 8.057 5.214 21.62 21.964 21.62 16.753 0 21.967-13.563 21.967-21.62 0-8.054-5.214-21.615-21.966-21.615zm0 40.913c-12.461 0-19.3-9.388-19.3-19.298 0-9.912 6.84-19.298 19.3-19.298s19.298 9.386 19.298 19.298c0 9.91-6.838 19.298-19.298 19.298zM433.067 61.418L416.2 23.398h-3.009l18.368 41.381h3.018l18.368-41.381h-3.014l-16.864 38.02zM346.438 44.725v-.112c5.847-1.392 8.454-5.859 8.454-10.26 0-8.639-6.025-10.955-13.962-10.955h-21.154v41.381h2.664V45.94h18.43c8.168 0 10.485 2.027 10.661 9.22.178 6.313.407 8.922 1.16 9.62h2.665c-.754-1.57-.985-3.832-1.158-11.475-.055-4.468-2.667-7.94-7.76-8.58zm-5.975-1.102H322.44V25.715h18.72c5.854 0 11.068 1.743 11.068 8.46 0 9.448-9.158 9.448-11.765 9.448zM515.331 49.073c-1.558 8.984-8.516 14.312-17.671 14.312-12.692 0-19.36-8.925-19.36-19.298 0-10.43 7.538-19.298 19.36-19.298 7.821 0 14.952 3.651 16.976 11.594h2.667c-2.14-9.277-9.679-13.91-19.643-13.91-15.183 0-22.024 11.59-22.024 21.614 0 13.678 9.505 21.62 22.024 21.62 12.343 0 19.414-8.756 20.34-16.634zM461.776 23.398h2.666v41.381h-2.666zM303.947 23.398h2.66v41.381h-2.66zM263.293 0h-44.717l22.41 47.589L263.293 0zM270.166 0l12.622 38.315 15.162-18.862L284.309 0h-14.143z"></path><path class="a" d="M240.945 65.331l-25.412-54.688-11.032 34.394 36.485 45.309 36.396-45.309-11.041-34.394-25.396 54.688zM197.564 0l-13.627 19.453 15.149 18.862L211.712 0h-14.148z"></path></svg> 